<?xml version="1.0" standalone="no"?> <!DOCTYPE svg PUBLIC "-//W3C//DTD SVG 1.0//EN" "http://www.w3.org/TR/2001/REC-SVG-20010904/DTD/svg10.dtd" > <svg xmlns="http://www.w3.org/2000/svg" width="100%" height="100%">
<defs >
<font id="Andada-Italic" horiz-adv-x="508" ><font-face
    font-family="Andada"
    units-per-em="1000"
    panose-1="2 0 0 0 0 0 0 0 0 0"
    ascent="1039"
    descent="-280"
    alphabetic="0" />
<missing-glyph horiz-adv-x="224" />
<glyph unicode=" " glyph-name="space" horiz-adv-x="224" />
<glyph unicode="!" glyph-name="exclam" horiz-adv-x="228" d="M130 215L65 227Q99 397 110 489T137 713L218 728L240 713Q208 592 195 538Q159 388 141 225L130 215ZM86 119Q132 119 132 69Q132 39 114 15T69 -10Q24 -10 24 39Q24 69 41 94T86 119Z" />
<glyph unicode="&quot;" glyph-name="quotedbl" horiz-adv-x="319" d="M118 756H207L158 513L102 516L115 610L118 756ZM258 756H347L298 513L242 516L255 610L258 756Z" />
<glyph unicode="#" glyph-name="numbersign" horiz-adv-x="570" d="M394 219L527 221L518 150H374L325 -15L268 -5L314 150H202L153 -15L96 -5L142 150H23L32 216L162 217L198 338L70 337L80 408H218L267 572L324 562L278 408H390L439 572L496 562L450 408H575L564
342L430 340L394 219ZM258 339L222 218L334 219L370 340L258 339Z" />
<glyph unicode="$" glyph-name="dollar" horiz-adv-x="505" d="M115 129Q115 126 115 115T116 71Q163 52 205 48L251 292L225 306Q167 336 132 374T96 472Q96 559 159 610T317 661H319L338 759L370 756L352 659Q408 654 491 631L455 487L404 493L412 540Q412 544
406 589Q369 605 342 607L300 379L326 364Q427 302 448 249Q458 222 458 190Q458 99 393 46T229 -10L214 -92L180 -89L195 -9Q148 -6 106 6T46 28L28 39L65 189L124 183L115 129ZM294 52T327 84T360 173T281 275L240 48Q294 52 327 84ZM190 499Q190 467 210 444T270
397L310 609H307Q258 609 224 580T190 499Z" />
<glyph unicode="%" glyph-name="percent" horiz-adv-x="785" d="M210 -49L165 -17L599 719L644 690L210 -49ZM720 196Q720 111 671 50T543 -11Q482 -11 449 26T415 127Q415 212 464 274T592 336Q653 336 686 298T720 196ZM584 283Q539 283 514 234T489 127Q489
42 551 42Q598 42 622 90T646 198Q646 283 584 283ZM384 526Q384 441 335 380T207 319Q146 319 113 356T79 457Q79 542 128 604T256 666Q317 666 350 628T384 526ZM248 613Q203 613 178 564T153 457Q153 372 215 372Q262 372 286 420T310 528Q310 613 248 613Z"
/>
<glyph unicode="&amp;" glyph-name="ampersand" horiz-adv-x="586" d="M155 -11Q25 -11 25 151Q25 224 64 307T163 447T274 503Q404 503 404 416Q404 371 342 325Q424 361 496 405Q497 415 497 433Q497 533 456 624L548 652Q569 565 569 521T566 450Q648 506 708
564L763 511L757 481Q666 441 555 383Q519 217 406 103T155 -11ZM200 62Q287 62 371 148T485 346Q378 291 294 257T113 204Q111 178 111 165Q111 108 131 85T200 62ZM250 444Q217 444 180 388T124 257Q324 307 324 396Q324 423 308 433T250 444Z" />
<glyph unicode="&apos;" glyph-name="quotesingle" horiz-adv-x="179" d="M118 756H207L158 513L102 516L115 610L118 756Z" />
<glyph unicode="(" glyph-name="parenleft" horiz-adv-x="275" d="M181 481T160 387T139 221T142 106Q149 27 157 8Q159 0 202 -82L217 -109L180 -135Q58 7 58 213Q57 372 120 515T308 769L335 743Q327 735 314 720T267 652T207 540Z" />
<glyph unicode=")" glyph-name="parenright" horiz-adv-x="275" d="M174 452Q174 560 156 626L96 743L133 769Q255 625 255 421Q256 262 193 119T5 -135L-22 -109Q5 -82 42 -24T106 94T153 247T174 441Q174 447 174 452Z" />
<glyph unicode="*" glyph-name="asterisk" horiz-adv-x="422" d="M105 650L120 680L225 627L253 745L285 747L290 631L407 668L428 642L328 576L418 494L402 463L298 517L270 398L237 396L232 515L115 478L94 505L194 569L105 650Z" />
<glyph unicode="+" glyph-name="plus" horiz-adv-x="560" d="M332 221L305 0H230L259 220L49 218L59 293H269L299 511H369L341 293H544L534 223L332 221Z" />
<glyph unicode="," glyph-name="comma" horiz-adv-x="204" d="M72 129Q131 129 129 54Q129 -11 89 -66T-15 -136L-24 -104Q50 -75 55 -10Q31 -10 18 4T5 47T24 102T72 129Z" />
<glyph unicode="-" glyph-name="hyphen" horiz-adv-x="282" d="M31 218L40 289H262L246 218H31Z" />
<glyph unicode="." glyph-name="period" horiz-adv-x="197" d="M82 129Q133 129 133 74Q133 42 114 16T66 -10Q16 -10 16 44Q16 76 34 102T82 129Z" />
<glyph unicode="/" glyph-name="slash" horiz-adv-x="376" d="M38 -67L-22 -47L403 773L463 753L38 -67Z" />
<glyph unicode="0" glyph-name="zero" horiz-adv-x="562" d="M54 246Q54 431 133 546T341 662Q431 662 481 595T531 406Q531 221 452 106T244 -10Q153 -10 104 57T54 246ZM435 420Q435 507 408 554T332 602Q252 602 201 499T150 231Q150 145 177 98T252 50Q332
50 383 154T435 420Z" />
<glyph unicode="1" glyph-name="one" horiz-adv-x="379" d="M302 54L286 -5Q235 0 156 0L34 -5L36 45L125 61Q126 65 130 82Q142 124 144 137L201 524L82 465L62 507Q189 599 202 609Q217 620 254 660L265 672L311 660Q277 476 270 426L232 167Q229 147 223 61L302 54Z" />
<glyph unicode="2" glyph-name="two" horiz-adv-x="501" d="M110 626Q203 662 290 662T424 626T470 524T444 409T345 287T103 73H282Q295 73 365 81L384 116L396 163L449 159L420 17L398 -3Q305 0 282 0H12L9 73Q242 285 307 362T373 504Q373 550 347 578T274
606T177 578Q164 549 160 527L156 482L101 479L110 626Z" />
<glyph unicode="3" glyph-name="three" horiz-adv-x="457" d="M85 633Q171 662 249 662T371 627T416 526T379 412T275 335Q333 318 364 280T395 189Q395 80 278 -2T-21 -105L-32 -52Q113 -29 206 36T299 183Q299 231 268 260T184 289L117 286L110 334Q217 348
268 391T320 510Q320 608 232 608Q189 608 153 586Q138 547 136 536L131 491L76 488L85 633Z" />
<glyph unicode="4" glyph-name="four" horiz-adv-x="515" d="M426 739L486 688Q485 687 462 665T412 617Q341 549 330 534L108 254L300 257L320 399L403 426L379 262L469 268L459 201H370L365 167Q356 104 356 61L435 54L420 -5Q371 0 292 0L158 -5L160 45L262
61Q281 127 282 137L292 201H42L6 254L426 739Z" />
<glyph unicode="5" glyph-name="five" horiz-adv-x="449" d="M242 572H179L136 355Q183 364 216 364Q306 364 356 323T407 205Q407 74 296 -6T7 -105L-4 -52Q311 4 311 188Q311 241 279 269T198 297T93 284L59 305L124 634L145 652H212L449 662L445 595Q271 572 242 572Z" />
<glyph unicode="6" glyph-name="six" d="M303 403Q383 403 431 355T479 228Q479 126 407 58T239 -11T91 47T39 193T71 368T163 531T318 666T529 747L534 694Q447 672 377 629T262 535T187 424Q133 317 133 205Q133 139 161 93T246 46T343 99T383 211T357 307T285
344Q256 344 223 339L225 387Q267 403 303 403Z" />
<glyph unicode="7" glyph-name="seven" horiz-adv-x="491" d="M262 652H523L533 613L149 -105L75 -80L356 422Q366 438 422 579H260Q238 579 178 573Q162 548 159 539L147 489L93 493L123 641L145 661Q239 652 262 652Z" />
<glyph unicode="8" glyph-name="eight" horiz-adv-x="505" d="M189 347Q98 409 98 495T163 631T308 682T437 644T487 539Q487 431 342 347Q457 279 457 186T386 41T224 -10T79 28T24 137T73 259T189 347ZM115 145Q115 96 144 67T226 37T322 76T365 174Q365 220
326 256Q296 284 244 316L237 319Q115 240 115 145ZM400 535Q400 578 375 606T306 635T224 597T185 508Q185 460 221 428Q250 402 299 372Q400 446 400 535Z" />
<glyph unicode="9" glyph-name="nine" horiz-adv-x="510" d="M232 248Q150 248 101 295T51 421Q51 523 123 592T292 662T442 603T494 455T465 281T380 119T228 -19T13 -107L2 -55Q110 -24 189 32T311 158Q396 295 396 451Q396 512 369 558T283 605T187 551T149
438T176 343T250 307L310 310L309 263Q274 248 232 248Z" />
<glyph unicode=":" glyph-name="colon" horiz-adv-x="198" d="M121 479Q172 479 172 424Q172 392 153 366T105 340Q55 340 55 394Q55 426 73 452T121 479ZM78 129Q129 129 129 74Q129 42 110 16T62 -10Q12 -10 12 44Q12 76 30 102T78 129Z" />
<glyph unicode=";" glyph-name="semicolon" horiz-adv-x="205" d="M129 479Q180 479 180 424Q180 392 161 366T113 340Q63 340 63 394Q63 426 81 452T129 479ZM82 129Q141 129 139 54Q139 -11 99 -66T-5 -136L-14 -104Q60 -75 65 -10Q41 -10 28 4T15 47T34 102T82 129Z" />
<glyph unicode="&lt;" glyph-name="less" horiz-adv-x="562" d="M116 247L455 513L501 460L218 248L443 38L382 -15L116 247Z" />
<glyph unicode="=" glyph-name="equal" horiz-adv-x="540" d="M490 312L55 307L66 378H501L490 312ZM37 185L472 190L462 119H27L37 185Z" />
<glyph unicode="&gt;" glyph-name="greater" horiz-adv-x="560" d="M207 513L472 247L132 -15L87 38L370 248L147 460L207 513Z" />
<glyph unicode="?" glyph-name="question" horiz-adv-x="403" d="M188 365Q257 365 298 416T340 538Q340 677 244 677Q200 677 173 661L127 549L92 557L96 668L113 694Q193 727 251 727Q336 727 383 682T430 553Q430 445 360 378T183 311Q180 311 177 311L169
225L157 215L93 227L107 352L139 369Q169 365 188 365ZM118 119Q164 119 164 69Q164 39 146 15T101 -10Q56 -10 56 39Q56 69 73 94T118 119Z" />
<glyph unicode="@" glyph-name="at" horiz-adv-x="914" d="M375 -10Q274 -10 274 139Q274 214 309 300T396 444T494 503Q515 503 561 497T617 490L674 503L697 488Q676 397 665 343T643 207T633 90T633 48Q716 62 767 142T819 347T740 545T534 618T318 551T187
379T145 150Q145 147 145 144Q145 5 213 -73T423 -151Q472 -151 593 -125L635 -116L640 -148Q475 -213 415 -213Q242 -213 147 -120T52 146Q54 376 183 521T534 667Q701 667 800 586T900 356T809 102T570 -15L546 0Q557 63 570 173Q528 90 477 40T375 -10ZM480
449Q443 449 402 345T361 148Q361 104 373 77T406 50Q435 50 477 108T553 252T595 414Q525 449 480 449Z" />
<glyph unicode="A" glyph-name="A" horiz-adv-x="644" d="M612 54L600 0H502L360 -5L364 44L437 64L427 172L416 232H204L158 127L139 64L205 54L193 0H108L-23 -5L-20 44L43 61L99 160L349 705L409 715L529 149L554 64L612 54ZM354 557L229 282L404 286L354 557Z" />
<glyph unicode="B" glyph-name="B" horiz-adv-x="595" d="M225 705L390 715Q464 715 515 675T567 565T520 441T401 370L400 363Q466 353 505 313T545 208Q545 113 480 54T318 -5Q318 -5 119 0L15 -5L17 45L93 61Q108 111 113 137L178 568Q180 585 180 644L111
656L124 710Q197 706 225 705ZM288 53Q357 53 400 95T444 206T403 305T297 337H286L301 394H308Q378 394 425 436T473 553Q473 602 446 631T379 661T289 655Q273 602 264 538L208 167Q198 94 198 59Q246 53 288 53Z" />
<glyph unicode="C" glyph-name="C" horiz-adv-x="593" d="M321 -15Q192 -15 121 65T49 281Q49 474 146 597T418 720Q494 720 592 692Q610 687 614 686L583 538L525 542L532 589Q532 591 532 599T528 639Q464 662 410 662Q330 662 270 608T181 469T152 281T198
110T328 43Q380 43 453 65Q473 111 475 121L484 168L542 170L526 19Q500 10 483 7T445 -1T414 -7T386 -10Q354 -15 321 -15Z" />
<glyph unicode="D" glyph-name="D" horiz-adv-x="700" d="M298 -6L123 0L9 -5L11 45L90 61Q105 111 110 137L173 568Q175 585 175 644L102 656L115 710Q176 707 210 705Q235 706 291 710T383 715Q524 715 602 636T681 418Q681 229 578 112T298 -6ZM385 655Q324
655 282 650Q268 595 259 538L205 167Q195 97 195 79T196 57Q244 53 307 53Q398 53 462 104Q582 202 582 412Q582 520 533 587T385 655Z" />
<glyph unicode="E" glyph-name="E" horiz-adv-x="572" d="M226 705H445L557 715L573 697L560 561L503 556Q503 588 502 604T486 644Q434 649 408 649H282Q265 579 259 538L238 396Q270 394 279 394H349L408 403L426 469L471 464Q461 400 458 380L445 271L397 265L398
332Q341 338 322 338H271Q254 338 229 335L205 167Q196 107 196 57H334Q370 57 420 66Q442 94 445 103Q464 149 470 170L523 165L486 14L465 -4Q375 0 355 0H123L9 -5L11 45L90 61Q105 111 110 137L173 568Q175 585 175 644L102 656L115 710Q206 705 226 705Z"
/>
<glyph unicode="F" glyph-name="F" horiz-adv-x="536" d="M408 649H282Q265 579 259 538L237 388Q269 386 278 386H348L407 395L425 461L470 456Q459 392 457 372L444 263L395 257L397 324Q340 330 320 330H270Q254 330 228 327L205 167Q196 104 196 61L292 54L277
-5Q202 0 123 0L9 -5L11 45L90 61Q105 111 110 137L173 568Q175 585 175 644L102 656L115 710Q206 705 226 705H445L557 715L573 697L560 561L503 556Q503 588 502 604T486 644Q434 649 408 649Z" />
<glyph unicode="G" glyph-name="G" horiz-adv-x="646" d="M434 720Q511 720 643 686L611 538L555 544L561 589Q562 592 562 601T557 638Q481 662 423 662Q296 662 224 553T151 287Q151 179 201 111T343 43Q395 43 470 63Q489 119 491 128L501 196V267L400 275L413
333H521L592 336L607 319Q583 216 576 166L555 19Q549 18 530 13T504 7T479 1T452 -4T426 -8T396 -12Q359 -15 337 -15Q200 -15 125 66T49 284Q49 476 151 598T434 720Z" />
<glyph unicode="H" glyph-name="H" horiz-adv-x="752" d="M772 710L767 651L691 644Q677 596 669 538L615 167Q606 104 606 61L691 54L676 -5Q612 0 533 0L419 -5L421 45L500 61Q501 65 506 82Q517 124 519 137L547 327H228L205 167Q196 104 196 61L282 54L266
-5Q202 0 123 0L9 -5L11 45L90 61Q105 111 110 137L173 568Q175 585 175 644L102 656L115 710Q206 705 226 705L362 710L358 651L281 644Q267 596 259 538L236 378L555 383L582 568Q585 585 585 644L512 656L525 710Q616 705 636 705L772 710Z" />
<glyph unicode="I" glyph-name="I" horiz-adv-x="354" d="M368 710L363 651L287 644Q273 596 265 538L211 167Q202 104 202 61L287 54L272 -5Q208 0 129 0L15 -5L17 45L96 61Q97 65 102 82Q113 124 115 137L178 568Q181 585 181 644L108 656L121 710Q212 705 232
705L368 710Z" />
<glyph unicode="J" glyph-name="J" horiz-adv-x="324" d="M353 651L277 644Q263 596 255 538L175 -10Q171 -40 13 -200L-18 -178Q84 -9 87 11L168 568Q171 585 171 644L98 656L111 710Q202 705 222 705L358 710L353 651Z" />
<glyph unicode="K" glyph-name="K" horiz-adv-x="679" d="M642 54L627 -5Q567 0 488 0L365 -5L367 45L426 59Q390 138 373 164L242 353L450 577L497 645L447 656L460 710Q541 705 562 705L687 710L683 651L609 644Q562 605 497 546L343 370Q353 355 416 266T512
129Q524 113 576 61L642 54ZM362 710L357 651L281 644Q267 596 259 538L205 167Q196 104 196 61L281 54L266 -5Q202 0 123 0L9 -5L12 45L90 61Q105 111 110 137L173 568Q175 585 175 644L103 656L115 710Q206 705 226 705L362 710Z" />
<glyph unicode="L" glyph-name="L" horiz-adv-x="519" d="M196 57H309Q346 57 395 66Q418 95 420 103Q439 151 444 170L498 165L461 14L440 -4Q349 0 330 0H123L9 -5L11 45L90 61Q105 111 110 137L173 568Q175 585 175 644L102 656L115 710Q206 705 226 705L362
710L358 651L281 644Q267 596 259 538L205 167Q196 106 196 57Z" />
<glyph unicode="M" glyph-name="M" horiz-adv-x="902" d="M720 705H748L899 710L894 651L816 644Q808 620 802 569L771 132L776 61L853 54L839 -5Q775 0 696 0L581 -5L583 45L661 61Q679 153 681 162L716 584L420 0H383L257 584L173 162Q166 116 163 61L240 54L224
-5Q176 0 99 0L-5 -5L-3 45L75 61Q97 118 101 132L191 569L198 644L120 656L133 710L265 706H323L338 685Q360 553 366 529L442 175L625 537L698 685L720 705Z" />
<glyph unicode="N" glyph-name="N" horiz-adv-x="740" d="M788 710L785 657L707 641Q683 577 676 528L597 -7H535L238 556L182 167Q173 113 173 61L250 54L234 -5Q193 0 114 0L9 -5L11 45L90 61Q105 111 110 137L173 568Q175 584 175 644L100 656L112 710Q203
705 224 705L269 706L285 685Q345 552 356 530L555 163L613 558Q616 582 616 641L541 647L555 707L635 705L788 710Z" />
<glyph unicode="O" glyph-name="O" horiz-adv-x="719" d="M701 420Q701 229 602 107T324 -15Q191 -15 120 66T49 284Q49 476 148 598T426 720Q559 720 630 639T701 420ZM215 556T186 470T156 279T200 106T327 38T472 93T564 234T594 425T551 599T423 667T277 612Z" />
<glyph unicode="P" glyph-name="P" horiz-adv-x="570" d="M210 705L383 715Q474 715 528 670T582 539Q582 423 507 357T318 291Q283 291 223 293L205 167Q196 104 196 61L286 54L270 -5Q202 0 123 0L9 -5L11 45L90 61Q105 111 110 137L173 568Q175 585 175 644L102
656L115 710Q177 706 210 705ZM295 341Q383 341 435 390T487 530Q487 596 450 630T344 665Q326 665 284 660Q268 600 259 538L231 345Q279 341 295 341Z" />
<glyph unicode="Q" glyph-name="Q" horiz-adv-x="727" d="M323 -15Q190 -15 120 66T49 284Q49 476 148 598T426 720Q559 720 630 639T701 411T633 153T437 1L512 -60Q523 -69 622 -116L655 -132L583 -224L359 -13Q335 -15 323 -15ZM215 556T186 470T156 279T200
106T331 38Q453 38 523 150T594 421Q594 531 551 599T423 667T277 612Z" />
<glyph unicode="R" glyph-name="R" horiz-adv-x="630" d="M214 705L385 715Q477 715 531 671T585 542T538 397T412 314Q457 191 475 154T524 61L593 54L578 -5Q502 0 423 0Q396 92 387 116L318 301Q284 301 226 303L206 167Q197 104 197 61L284 54L268 -5Q204
0 124 0L9 -5L11 45L91 61Q106 111 111 137L175 568Q177 585 177 644L103 656L116 710Q181 707 214 705ZM346 665Q337 665 287 659Q272 608 261 538L234 356Q281 351 309 351Q396 351 443 397T490 534Q490 598 452 631T346 665Z" />
<glyph unicode="S" glyph-name="S" horiz-adv-x="543" d="M123 186Q115 136 115 118T117 72Q177 45 240 45T344 82T384 184Q384 251 282 308Q240 332 198 357T125 421T95 512Q95 608 162 664T332 720Q407 720 527 688L491 537L434 543Q441 587 441 591T436 643Q391
665 332 665T235 632T198 542Q198 476 302 420Q345 396 388 370T461 303T492 207Q492 101 418 43T231 -15Q173 -15 121 -2T46 25L22 38L59 192L123 186Z" />
<glyph unicode="T" glyph-name="T" horiz-adv-x="578" d="M463 649H400Q385 590 377 538L323 167Q320 147 314 61L400 54L384 -5Q320 0 242 0L127 -5L130 45L208 61Q223 111 228 137L291 568Q294 595 294 649H233Q209 649 154 644Q132 619 130 611T110 548L54
553L82 697L103 715Q193 705 212 705H500L612 715L628 697L613 553L556 548Q556 595 555 608T540 644Q488 649 463 649Z" />
<glyph unicode="U" glyph-name="U" horiz-adv-x="707" d="M442 -15T319 -15T141 60Q100 117 100 205Q100 234 104 266L148 563Q151 588 151 644L77 656L89 710Q180 705 200 705L343 710L338 651L261 644Q248 597 238 533L199 266Q195 237 195 212Q195 150 219
108Q253 49 335 49T469 108T536 266L580 563Q582 580 582 644L508 656L521 710Q602 705 623 705L752 710L748 651L671 644Q659 609 647 533L608 266Q590 135 516 60Z" />
<glyph unicode="V" glyph-name="V" horiz-adv-x="673" d="M278 0L149 556Q139 596 126 628L120 641L58 651L71 705H176L322 710L318 661L239 641Q239 590 252 533L337 148L543 578L563 641L491 651L504 705H592L732 710L728 661L661 644Q628 599 602 545L340 0H278Z" />
<glyph unicode="W" glyph-name="W" horiz-adv-x="981" d="M1040 661L972 644Q931 584 913 545L676 0H615L526 506L308 0H246L148 556Q142 592 127 629L122 641L60 651L73 705H178L324 710L320 661L241 641Q244 584 251 533L305 148L536 685H590L674 148L855 578L874
641L803 651L815 705H903L1043 710L1040 661Z" />
<glyph unicode="X" glyph-name="X" horiz-adv-x="696" d="M311 355L201 558L153 641L77 651L92 706Q158 705 178 705L361 710L358 663L280 641Q297 575 307 555L379 422L494 578Q501 587 535 641L463 651L477 706Q528 705 556 705L722 710L720 663L651 647Q582
589 564 569L410 368L539 132Q554 108 588 64L662 54L647 -1Q584 0 565 0L390 -5L392 42L457 60Q443 114 426 142L341 301L207 132Q193 114 163 64L238 54L223 -1Q167 0 143 0L-15 -5L-13 42L48 59Q138 142 156 164L311 355Z" />
<glyph unicode="Y" glyph-name="Y" horiz-adv-x="645" d="M689 661L621 644Q578 597 545 545L369 274L354 167Q345 104 345 61L430 54L415 -5Q351 0 272 0L158 -5L160 45L239 61Q240 65 244 82Q256 124 258 137L276 258L168 556Q157 590 134 629L127 641L64 651L77
705H182L328 710L325 661L246 641Q250 592 271 533L342 344L487 578L522 641L452 651L464 705H552L692 710L689 661Z" />
<glyph unicode="Z" glyph-name="Z" horiz-adv-x="543" d="M260 646Q228 646 176 641L155 607Q139 558 132 523L76 528L105 697L126 715Q216 705 235 705H558V649L432 494L210 191L123 59H318Q354 59 404 68Q424 90 432 112T452 180L506 175L471 14L449 -4Q359
0 339 0H0L1 57Q95 171 130 219L353 520L436 646H260Z" />
<glyph unicode="[" glyph-name="bracketleft" horiz-adv-x="267" d="M137 18T137 -9T138 -54L139 -70L222 -85L215 -125Q121 -121 52 -121L41 -108Q80 59 119 329T162 749L177 762L341 766L334 726L249 711Q226 651 220 601L140 40Q137 18 137 -9Z" />
<glyph unicode="\" glyph-name="backslash" horiz-adv-x="398" d="M354 -47L287 -67L92 753L158 773L354 -47Z" />
<glyph unicode="]" glyph-name="bracketright" horiz-adv-x="267" d="M178 623T178 650T177 694L176 711L93 726L100 766Q195 762 264 762L275 749Q235 584 197 314T154 -108L139 -121L-25 -125L-19 -85L66 -70Q89 -10 95 40L175 601Q178 623 178 650Z" />
<glyph unicode="^" glyph-name="asciicircum" horiz-adv-x="543" d="M326 615L81 313L26 357L342 728L549 357L482 313L326 615Z" />
<glyph unicode="_" glyph-name="underscore" horiz-adv-x="504" d="M-52 -230L-45 -159H458L443 -230H-52Z" />
<glyph unicode="`" glyph-name="grave" horiz-adv-x="349" d="M344 605L312 564L241 624L124 695L170 755L344 605Z" />
<glyph unicode="a" glyph-name="a" horiz-adv-x="529" d="M286 92T234 41T131 -11Q30 -11 30 134Q30 136 30 139Q30 214 64 300T151 445T251 504Q278 504 322 498T375 490L434 504L458 488Q428 366 412 272T392 70L481 65L478 29L325 -15L299 0Q314 68 328 178Q286
92 234 41ZM165 55Q194 55 234 111T308 252T351 411Q273 446 237 446Q213 446 186 398T140 280T121 159T133 82T165 55Z" />
<glyph unicode="b" glyph-name="b" horiz-adv-x="491" d="M366 503Q465 503 465 354Q465 278 430 192T343 47T244 -11Q224 -11 127 2L64 -15L38 0Q71 122 102 332T145 691L62 703L59 742L225 770L248 750Q195 451 177 333Q218 411 267 457T366 503ZM258 47Q282
47 309 95T355 213T374 334T362 411T330 438Q302 438 261 382T186 240T144 81Q215 47 258 47Z" />
<glyph unicode="c" glyph-name="c" horiz-adv-x="397" d="M95 386T143 444T231 503T380 489L395 465L357 318L321 320L315 415Q255 436 231 436Q197 436 159 337T120 145T180 53Q258 53 334 154L366 130Q279 -11 144 -11Q87 -11 58 27T28 139T62 299Z" />
<glyph unicode="d" glyph-name="d" horiz-adv-x="532" d="M129 -11Q30 -11 30 139Q30 214 65 300T152 445T251 504Q262 504 363 491Q379 623 384 691L300 703L298 742L464 770L487 750Q477 693 455 566T424 385Q397 215 395 70L484 65L481 29L326 -15L300 0Q324
134 328 178Q286 92 234 41T129 -11ZM237 446Q213 446 186 398T140 280T121 159T133 82T165 55Q194 55 235 111T309 252T351 411Q277 446 237 446Z" />
<glyph unicode="e" glyph-name="e" horiz-adv-x="402" d="M244 503Q391 503 391 423Q391 347 321 291T124 209Q120 181 120 149Q120 52 180 52Q259 52 334 154L367 129Q325 62 268 26T149 -11Q27 -11 29 139Q29 214 64 300T150 444T244 503ZM303 421T288 431T243
442T182 386T133 255Q209 272 256 310T303 397Q303 421 288 431Z" />
<glyph unicode="f" glyph-name="f" horiz-adv-x="287" d="M-139 -235L-166 -234H-170L-143 -163Q-138 -168 -100 -168T-21 -155T28 -130Q53 -96 80 74T124 422H36L40 466L52 469Q106 483 125 494Q134 500 141 543Q157 643 237 706T422 770L457 767L431 697Q408
704 381 704T315 692T265 665Q240 632 216 478H337L323 422H207Q193 339 172 177T139 -38Q116 -130 39 -182T-139 -235Z" />
<glyph unicode="g" glyph-name="g" horiz-adv-x="506" d="M240 -211T197 -223T114 -235T34 -229T-22 -215L9 -137Q82 -163 139 -163T234 -151T282 -128T301 -83T310 -25T315 26T325 99T336 177Q295 91 243 40T140 -11Q39 -11 39 135Q39 211 73 298T160 444T260
504Q279 504 332 497L384 490L444 504L468 488Q438 375 425 290Q401 122 392 14Q384 -55 355 -106T283 -184ZM246 446Q210 446 170 344T129 150Q129 108 141 82T174 55Q203 55 243 111T317 252T360 411Q286 446 246 446Z" />
<glyph unicode="h" glyph-name="h" horiz-adv-x="551" d="M400 504Q472 504 472 422Q472 377 448 255T419 70L511 65L508 29L337 -15L312 0Q378 284 378 375Q378 427 345 427Q305 427 243 339T147 116Q144 95 132 0L64 -15L38 0Q71 122 102 332T145 691L62 703L59
742L225 770L248 750Q191 431 173 312Q214 390 273 447T400 504Z" />
<glyph unicode="i" glyph-name="i" horiz-adv-x="301" d="M214 504L237 484Q203 361 164 70L253 65L250 29L86 -15L61 0Q93 129 106 212T132 418L50 422L49 461L214 504ZM211 722Q259 722 259 671Q259 640 241 616T194 591Q148 591 148 641Q148 671 166 696T211 722Z" />
<glyph unicode="j" glyph-name="j" horiz-adv-x="268" d="M199 504L222 484Q202 414 188 323T159 140T135 -15Q129 -53 -19 -235L-50 -208Q-19 -155 14 -85T55 14Q99 197 117 418L35 422L34 461L199 504ZM196 722Q244 722 244 671Q244 640 226 616T179 591Q133
591 133 641Q133 671 151 696T196 722Z" />
<glyph unicode="k" glyph-name="k" horiz-adv-x="494" d="M399 504Q468 504 466 424Q466 357 415 301T276 213Q325 130 384 70L476 65L473 28L328 -20L198 192V230Q288 257 338 301T387 396Q389 427 360 427Q302 427 240 339T148 123Q139 70 131 0L63 -15L37 0Q67
111 99 319T144 691L60 703L59 742L225 770L248 750Q188 413 174 317Q218 405 278 454T399 504Z" />
<glyph unicode="l" glyph-name="l" horiz-adv-x="277" d="M225 770L248 750Q170 310 140 70L229 65L226 29L64 -15L38 0Q71 122 102 332T145 691L62 703L59 742L225 770Z" />
<glyph unicode="m" glyph-name="m" horiz-adv-x="845" d="M423 504Q494 504 494 422Q494 394 487 341Q582 504 694 504Q766 504 766 422Q766 377 742 255T713 70L805 65L802 29L631 -15L605 0Q672 279 672 375Q672 427 638 427Q600 427 540 341T445 122Q438 78
429 0L360 -15L334 0Q401 279 401 375Q401 427 367 427Q326 427 264 335T168 101Q163 63 154 0L86 -15L60 0Q93 130 107 214T132 418L49 422V461L214 504L237 484Q220 428 200 314Q240 392 298 448T423 504Z" />
<glyph unicode="n" glyph-name="n" horiz-adv-x="573" d="M422 504Q494 504 494 422Q494 377 470 255T441 70L533 65L530 29L359 -15L334 0Q400 284 400 375Q400 427 366 427Q326 427 264 335T168 101L154 0L86 -15L60 0Q93 130 107 214T132 418L49 422V461L214
504L237 484Q220 428 200 314Q240 392 298 448T422 504Z" />
<glyph unicode="o" glyph-name="o" horiz-adv-x="472" d="M294 504Q364 504 401 459T439 331Q439 193 361 91T177 -11Q107 -11 70 34T32 163Q32 300 110 402T294 504ZM342 447T277 447T171 366T129 165T194 46T300 127T342 328Z" />
<glyph unicode="p" glyph-name="p" horiz-adv-x="509" d="M245 422T292 463T386 504T459 466T484 359Q484 357 484 354Q484 279 450 193T363 48T263 -11Q230 -11 149 2Q132 -120 116 -262L49 -277L23 -262Q56 -122 87 80T131 418L48 422V461L213 504L236 484Q218
414 205 351Q245 422 292 463ZM278 47Q302 47 329 95T375 213T394 335T381 412T349 438Q320 438 279 382T205 240T164 81Q235 47 278 47Z" />
<glyph unicode="q" glyph-name="q" horiz-adv-x="509" d="M129 -11Q30 -11 30 133Q30 136 30 139Q30 214 64 300T151 445T251 504Q270 504 321 497T374 490L433 504L457 488Q424 371 394 168T350 -192L439 -197L436 -233L272 -277L246 -262L292 -6L320 162Q278
82 228 36T129 -11ZM236 446Q212 446 185 398T139 280T120 158T133 81T165 55Q194 55 234 111T308 252T350 411Q276 446 236 446Z" />
<glyph unicode="r" glyph-name="r" horiz-adv-x="399" d="M391 504Q410 504 414 500L431 476L386 307L349 310L343 430Q286 398 234 301T168 104L154 0L86 -15L60 0Q112 206 132 418L49 422V461L214 504L237 484Q215 409 201 324Q241 406 292 455T391 504Z" />
<glyph unicode="s" glyph-name="s" horiz-adv-x="363" d="M215 504Q255 504 316 492L334 489L355 465L323 342L284 345L269 444Q243 455 214 455T159 436T133 391T162 337T227 287T291 227T321 148Q321 78 268 34T137 -11Q96 -11 57 5T-1 43L-2 75L48 174L85 163L75
69Q109 40 149 40T214 60T239 113T211 172T149 219T87 279T58 371T104 464T215 504Z" />
<glyph unicode="t" glyph-name="t" horiz-adv-x="324" d="M329 424H223Q183 202 165 69L277 65L274 29L89 -15L64 0Q112 194 138 424H47L51 468Q129 489 144 498Q168 511 199 576L209 597L250 585Q245 560 240 525T233 480H344L329 424Z" />
<glyph unicode="u" glyph-name="u" horiz-adv-x="560" d="M138 -11Q103 -11 85 15T66 80T92 234T124 418L41 422V461L207 504L229 484Q161 227 159 119Q159 68 193 68Q233 68 292 156T396 427L405 488L478 504L502 488Q465 345 449 262T423 69L512 65L509 29L345
-15L319 0Q338 67 359 185Q313 96 256 43T138 -11Z" />
<glyph unicode="v" glyph-name="v" horiz-adv-x="484" d="M136 -11Q73 -11 73 57Q73 80 96 193T120 342Q120 348 119 366T118 402L117 418L34 422L28 461L179 504L204 488V372Q204 359 186 246T168 100T192 66Q231 66 276 112T353 225T385 351Q385 372 379 418L298
422L292 461L449 504L473 488Q471 364 423 248T296 60T136 -11Z" />
<glyph unicode="w" glyph-name="w" horiz-adv-x="753" d="M384 351L369 485L439 503L463 488L467 372Q467 359 451 246T435 99T460 66T519 91T583 155T635 247T657 351Q657 369 651 418L571 422L564 461L721 504L746 488Q746 382 713 286T628 127T517 26T405 -11Q378
-11 364 9T349 52T360 134Q310 65 251 27T138 -11Q76 -11 76 57Q76 80 99 193T122 354T119 418L36 422L30 461L181 504L205 488H207V372Q207 359 189 246T170 100T194 66Q248 66 316 158T384 351Z" />
<glyph unicode="x" glyph-name="x" horiz-adv-x="486" d="M472 488L486 425Q464 418 431 403T387 382T282 247Q315 157 356 70L459 65L455 28L313 -15L290 0L226 185Q129 61 119 50L34 -13L11 2L-12 64Q75 96 95 108Q104 115 205 243Q162 352 122 421L41 426L33
463L177 504L201 489Q217 434 261 303Q266 309 304 362T365 440L450 504L472 488Z" />
<glyph unicode="y" glyph-name="y" horiz-adv-x="528" d="M260 -211T217 -223T133 -235T53 -229T-3 -215L29 -137Q100 -163 158 -163T253 -151T303 -127Q313 -116 324 -56T357 183Q311 95 255 42T138 -11Q103 -11 85 15T66 80T92 234T124 418L41 422V461L207 504L229
484Q159 214 159 119Q159 68 193 68Q237 68 296 162T394 418L314 422L308 461L466 504L490 488Q449 328 428 166Q423 121 411 14Q403 -55 374 -106T302 -184Z" />
<glyph unicode="z" glyph-name="z" horiz-adv-x="438" d="M401 152L376 10L346 -13L66 0L15 -13L-7 6Q110 149 171 234T299 429Q215 428 124 412L98 331L60 334L55 480L71 504L369 487L428 502L439 483Q316 326 255 241T134 56Q254 56 312 69Q365 160 366 164Q367
164 383 159T401 152Z" />
<glyph unicode="{" glyph-name="braceleft" horiz-adv-x="276" d="M146 18T146 -9T147 -54L148 -70L231 -85L224 -125Q130 -121 61 -121L50 -108Q85 44 118 264Q101 299 58 309L62 332Q107 339 134 376Q166 609 171 749L186 762L350 766L343 726L258 711Q235 651
229 601L193 356Q164 329 131 318L130 314Q163 301 182 274L149 40Q146 18 146 -9Z" />
<glyph unicode="|" glyph-name="bar" horiz-adv-x="275" d="M135 -122L61 -113L189 760L253 752L135 -122Z" />
<glyph unicode="}" glyph-name="braceright" horiz-adv-x="276" d="M178 623T178 650T177 694L176 711L93 726L100 766Q195 762 264 762L275 749Q240 606 206 377Q212 362 229 349T267 332L263 309Q215 301 190 264Q157 26 154 -108L139 -121L-25 -125L-19 -85L66
-70Q89 -10 95 40L131 285Q162 312 194 323V327Q163 339 142 367L175 601Q178 623 178 650Z" />
<glyph unicode="~" glyph-name="asciitilde" horiz-adv-x="560" d="M420 175T394 175T277 205T168 235Q134 235 94 194L81 180L46 213Q71 250 109 283T169 317Q206 317 293 287T400 257Q433 257 472 298L486 312L521 279Q496 242 458 209Z" />
</font>
</defs>
</svg>
